<?xml version="1.0" encoding="utf-8"?>
<!-- Generator: Adobe Illustrator 24.1.1, SVG Export Plug-In . SVG Version: 6.00 Build 0)  -->
<svg version="1.1" id="Capa_1" xmlns="http://www.w3.org/2000/svg" xmlns:xlink="http://www.w3.org/1999/xlink" x="0px" y="0px"
	 viewBox="0 0 100 100" style="enable-background:new 0 0 100 100;" xml:space="preserve">
<style type="text/css">
	.st0{fill:#FFFFFF;}
</style>
<path class="st0" d="M46.1,0c2.5,0,5.1,0,7.6,0c0.1,0.2,0.2,0.2,0.4,0.2c1.8,0.1,3.5,0.4,5.2,0.7c9.8,1.9,18.3,6.2,25.5,13.2
	c8.5,8.3,13.4,18.3,14.9,30.1c0.1,0.6,0,1.3,0.4,1.9c0,2.6,0,5.2,0,7.8c-0.3,0.1-0.2,0.3-0.2,0.5c-0.3,3.7-1,7.3-2.2,10.9
	C90.3,88,67.9,102.5,44.3,99.6c-10.1-1.2-19.1-5.1-26.8-11.7C2.5,75.3-3.6,54.4,2.1,35.7C7.8,16.9,23.3,3.5,42.7,0.5
	C43.8,0.4,45,0.4,46.1,0z M32.3,71.5c1.3,0,2.2-0.6,3.1-1.5c4.7-4.7,9.3-9.3,14-14c0.5-0.5,0.7-0.5,1.2,0c4.4,4.4,8.7,8.8,13.1,13.1
	c0.3,0.3,0.6,0.6,0.9,0.9c2.1,1.7,5.4,0.7,6.1-2c0.4-1.6-0.2-2.9-1.3-4c-4.5-4.4-8.9-8.9-13.3-13.3c-0.5-0.5-0.6-0.7,0-1.3
	c4.2-4.1,8.3-8.3,12.4-12.4c0.3-0.3,0.6-0.6,0.9-0.9c1.6-2.1,0.7-5.1-1.8-6c-1.7-0.5-3,0-4.2,1.2c-4.2,4.2-8.5,8.5-12.7,12.7
	c-0.5,0.5-0.8,0.5-1.3,0c-4.4-4.4-8.7-8.8-13.1-13.1c-0.3-0.3-0.6-0.6-0.9-0.8c-2.2-1.8-5.4-0.7-6.1,2.1c-0.4,1.6,0.2,2.8,1.3,4
	c4.5,4.4,8.9,8.9,13.3,13.3c0.6,0.6,0.5,0.8,0,1.3c-4.6,4.6-9.2,9.1-13.7,13.7c-0.3,0.3-0.6,0.6-0.9,0.9c-1,1.3-1.1,2.6-0.4,4
	C29.6,70.8,30.8,71.5,32.3,71.5z"/>
</svg>
