<svg id="Capa_1" data-name="Capa 1" xmlns="http://www.w3.org/2000/svg" viewBox="0 0 100 93"><defs><style>.cls-1{fill:#fff;}</style></defs><path class="cls-1" d="M50,92.56H70.7c2.73,0,4.11-1.36,4.12-4.06,0-5.68,0-11.36,0-17A17.67,17.67,0,0,0,56.89,53.59c-4.58,0-9.15,0-13.73,0a17.68,17.68,0,0,0-17.95,18c0,5.64,0,11.29,0,16.93,0,2.7,1.38,4.08,4.09,4.08Zm17.09-44C76.53,53.23,81.45,60.83,82,71.29c4.81,0,9.53,0,14.25,0a3.47,3.47,0,0,0,3.38-3.66c0-6.06.06-12.11,0-18.16A17.41,17.41,0,0,0,85.88,32.84a55.93,55.93,0,0,0-8.7-.5c-2-.07-4.05,0-6.18,0A21.59,21.59,0,0,1,67.09,48.54ZM18,71.29C18.59,60.76,23.55,53.2,33,48.53A21.54,21.54,0,0,1,29,32.35c-4.1,0-8-.14-12,0A17.55,17.55,0,0,0,.46,49C.27,55.31.39,61.58.42,67.85a3.42,3.42,0,0,0,3.37,3.43C8.51,71.33,13.23,71.29,18,71.29ZM11,14.56A14.18,14.18,0,1,0,25.23.44,14.21,14.21,0,0,0,11,14.56ZM74.8.44A14.17,14.17,0,1,0,89,14.57,14.19,14.19,0,0,0,74.8.44ZM50.08,21.7A14.17,14.17,0,1,0,64.19,35.91,14.18,14.18,0,0,0,50.08,21.7Z"/><path class="cls-1" d="M50,92.56H29.3c-2.71,0-4.09-1.38-4.09-4.08,0-5.64,0-11.29,0-16.93a17.68,17.68,0,0,1,17.95-18c4.58,0,9.15,0,13.73,0A17.67,17.67,0,0,1,74.81,71.46c0,5.68,0,11.36,0,17,0,2.7-1.39,4.06-4.12,4.06Z"/><path class="cls-1" d="M67.09,48.54A21.59,21.59,0,0,0,71,32.33c2.13,0,4.16-.06,6.18,0a55.93,55.93,0,0,1,8.7.5A17.41,17.41,0,0,1,99.6,49.46c.08,6,0,12.1,0,18.16a3.47,3.47,0,0,1-3.38,3.66c-4.72,0-9.44,0-14.25,0C81.45,60.83,76.53,53.23,67.09,48.54Z"/><path class="cls-1" d="M18,71.29c-4.81,0-9.53,0-14.25,0A3.42,3.42,0,0,1,.42,67.85C.39,61.58.27,55.31.46,49A17.55,17.55,0,0,1,17,32.38c3.94-.17,7.88,0,12,0A21.54,21.54,0,0,0,33,48.53C23.55,53.2,18.59,60.76,18,71.29Z"/><path class="cls-1" d="M11,14.56a14.18,14.18,0,1,1,14.1,14.22A14.19,14.19,0,0,1,11,14.56Z"/><path class="cls-1" d="M74.8.44A14.17,14.17,0,1,1,60.64,14.6,14.18,14.18,0,0,1,74.8.44Z"/><path class="cls-1" d="M50.08,21.7A14.17,14.17,0,1,1,35.84,35.77,14.19,14.19,0,0,1,50.08,21.7Z"/></svg>