<svg id="Capa_1" data-name="Capa 1" xmlns="http://www.w3.org/2000/svg" viewBox="0 0 100 93"><defs><style>.cls-1{fill:#fff;}</style></defs><path class="cls-1" d="M66.83,67.14a51.83,51.83,0,0,1,18,7.8A45.7,45.7,0,0,0,95,49.19H68.69C68.07,55.17,67.46,61.09,66.83,67.14ZM15.08,74.85a51,51,0,0,1,18.09-7.76c-.63-6-1.24-11.94-1.86-17.87H5A45.84,45.84,0,0,0,15.08,74.85Zm46.29-8.76a97.62,97.62,0,0,0,1.78-16.88H36.84a98.55,98.55,0,0,0,1.79,16.86A75.38,75.38,0,0,1,61.37,66.09Zm-1.25,5.16a68.18,68.18,0,0,0-20.12,0c0,.11,0,.17,0,.22a35,35,0,0,0,5.25,11.74,11.66,11.66,0,0,0,2,2,4.08,4.08,0,0,0,5.68,0,14.3,14.3,0,0,0,3.49-4.39A43.18,43.18,0,0,0,60.12,71.25Z"/><path class="cls-1" d="M19.52,1.3A13.1,13.1,0,0,1,24.3,3.18a10.59,10.59,0,0,1-4.38,19.16,1.81,1.81,0,0,0-.3.15l1.53.32A13.22,13.22,0,0,1,31.49,35.55c0,2.73,0,5.46,0,8.24H4.89c0-1,0-2,0-3a62.91,62.91,0,0,1,.17-6.87A13.23,13.23,0,0,1,16.28,22.65a.91.91,0,0,0,.52-.24l-.67-.13a10.6,10.6,0,0,1,.43-20.82,2.81,2.81,0,0,0,.49-.16Z"/><path class="cls-1" d="M95.11,43.85H68.5c0-.36,0-.67,0-1,0-3-.14-6,.19-9a13,13,0,0,1,11-11.23l.61-.13a30.45,30.45,0,0,1-2.93-1A10.57,10.57,0,0,1,80.08,1.45a3.39,3.39,0,0,0,.41-.15H83a3.22,3.22,0,0,0,.5.16,10.58,10.58,0,0,1,.87,20.69c-.37.1-.75.18-1.12.26a1,1,0,0,0,.5.24,13.27,13.27,0,0,1,11,9.79c.19.61.29,1.25.43,1.88Z"/><path class="cls-1" d="M51.24,1.3a12.58,12.58,0,0,1,5,2,10.59,10.59,0,0,1-4.53,19,4.24,4.24,0,0,0-.41.15l1.49.32A13.2,13.2,0,0,1,63.21,35.65c0,2.7,0,5.4,0,8.15H36.91s-.09-.07-.09-.11c0-3.38-.15-6.79.2-10.13.58-5.43,5.35-10,10.79-10.89a2.87,2.87,0,0,0,.73-.21A10.8,10.8,0,0,1,41,17.35,10.57,10.57,0,0,1,48.27,1.46a3.22,3.22,0,0,0,.5-.16Z"/><path class="cls-1" d="M51.41,91.7c5.47-1.38,8.35-5.52,10.54-10.22,1.27-2.73,2.14-5.65,3.19-8.48.08-.22.14-.44.24-.75a47.91,47.91,0,0,1,16,6.67c-1.7,1.4-3.23,2.79-4.9,4a44,44,0,0,1-23,8.61,5.52,5.52,0,0,0-.68.15Z"/><path class="cls-1" d="M47.18,91.7c-1.68-.24-3.36-.41-5-.71A44.33,44.33,0,0,1,18.94,79.08s-.06-.1-.15-.23a47.53,47.53,0,0,1,15.8-6.6c.57,1.73,1,3.47,1.71,5.1a67.45,67.45,0,0,0,3.54,7.37,13.72,13.72,0,0,0,8.75,7Z"/><path class="cls-1" d="M66.83,67.14c.63-6,1.24-12,1.86-18H95A45.7,45.7,0,0,1,84.86,74.94,51.83,51.83,0,0,0,66.83,67.14Z"/><path class="cls-1" d="M15.08,74.85A45.84,45.84,0,0,1,5,49.22H31.31c.62,5.93,1.23,11.85,1.86,17.87A51,51,0,0,0,15.08,74.85Z"/><path class="cls-1" d="M61.37,66.09a75.38,75.38,0,0,0-22.74,0,98.55,98.55,0,0,1-1.79-16.86H63.15A97.62,97.62,0,0,1,61.37,66.09Z"/><path class="cls-1" d="M60.12,71.25a43.18,43.18,0,0,1-3.78,9.62,14.3,14.3,0,0,1-3.49,4.39,4.08,4.08,0,0,1-5.68,0,11.66,11.66,0,0,1-2-2A35,35,0,0,1,40,71.49s0-.11,0-.22A68.18,68.18,0,0,1,60.12,71.25Z"/></svg>